<?xml version="1.0" standalone="no"?>
<!DOCTYPE svg PUBLIC "-//W3C//DTD SVG 20010904//EN"
 "http://www.w3.org/TR/2001/REC-SVG-20010904/DTD/svg10.dtd">
<svg version="1.0" xmlns="http://www.w3.org/2000/svg"
 width="512.000000pt" height="512.000000pt" viewBox="0 0 512.000000 512.000000"
 preserveAspectRatio="xMidYMid meet">

<g transform="translate(0.000000,512.000000) scale(0.100000,-0.100000)"
fill="#000000" stroke="none">
<path d="M2398 4066 c-81 -27 -169 -85 -212 -140 -17 -23 -493 -504 -1058
-1071 -692 -694 -1036 -1046 -1056 -1080 -164 -283 -22 -638 290 -729 124 -36
279 -13 395 57 41 26 312 290 933 911 l875 876 885 -884 c690 -689 896 -890
935 -909 171 -85 359 -77 511 21 76 49 127 109 169 195 67 138 69 286 4 429
-32 72 -48 89 -1059 1103 -564 567 -1043 1051 -1063 1077 -49 61 -143 123
-226 148 -95 28 -232 27 -323 -4z"/>
</g>
</svg>
